<?xml version="1.0" encoding="UTF-8" standalone="no"?>
<svg
   xmlns:dc="http://purl.org/dc/elements/1.1/"
   xmlns:cc="http://creativecommons.org/ns#"
   xmlns:rdf="http://www.w3.org/1999/02/22-rdf-syntax-ns#"
   xmlns:svg="http://www.w3.org/2000/svg"
   xmlns="http://www.w3.org/2000/svg"
   xmlns:sodipodi="http://sodipodi.sourceforge.net/DTD/sodipodi-0.dtd"
   xmlns:inkscape="http://www.inkscape.org/namespaces/inkscape"
   width="300"
   height="300"
   viewBox="0 0 300 300"
   version="1.1"
   id="svg2216"
   inkscape:version="1.0.1 (3bc2e813f5, 2020-09-07)"
   sodipodi:docname="_MASTER-FRAME-FONT-NEW.svg">
  <defs
     id="defs2210" />
  <sodipodi:namedview
     id="base"
     pagecolor="#ffffff"
     bordercolor="#666666"
     borderopacity="1.0"
     inkscape:pageopacity="0.0"
     inkscape:pageshadow="2"
     inkscape:zoom="0.98994949"
     inkscape:cx="233.17409"
     inkscape:cy="184.99516"
     inkscape:document-units="px"
     inkscape:current-layer="layer1"
     showgrid="false"
     units="px"
     inkscape:window-width="1366"
     inkscape:window-height="705"
     inkscape:window-x="-8"
     inkscape:window-y="-8"
     inkscape:window-maximized="1"
     fit-margin-top="10"
     fit-margin-left="10"
     fit-margin-bottom="10"
     fit-margin-right="10"
     inkscape:showpageshadow="false"
     scale-x="1"
     inkscape:document-rotation="0" />
  <metadata
     id="metadata2213">
    <rdf:RDF>
      <cc:Work
         rdf:about="">
        <dc:format>image/svg+xml</dc:format>
        <dc:type
           rdf:resource="http://purl.org/dc/dcmitype/StillImage" />
        <dc:title />
      </cc:Work>
    </rdf:RDF>
  </metadata>
  <g
     inkscape:label="Layer 1"
     inkscape:groupmode="layer"
     id="layer1"
     transform="translate(0,0)">
    
<g
       aria-label="g"
       style="font-style:normal;font-variant:normal;font-weight:normal;font-stretch:normal;font-size:5.33333px;line-height:1.25;font-family:'Open Sans';-inkscape-font-specification:'Open Sans, Normal';font-variant-ligatures:normal;font-variant-caps:normal;font-variant-numeric:normal;font-feature-settings:normal;text-align:start;letter-spacing:0px;word-spacing:0px;writing-mode:lr-tb;text-anchor:start;fill:#0000ff;fill-opacity:1;stroke:none"
       id="text824"
       transform="translate(250.99132,-148.72087)">
      <path
         d="m -226.28835,240.15207 c -10.57943,24.40321 -13.92732,49.42298 -11.81143,73.54407 2.398,29.34028 14.91768,53.79604 31.84477,76.22443 15.65755,20.73568 59.68255,45.95657 92.25354,47.80552 1.26953,-50.78125 0.37667,-98.99197 -0.89286,-149.63216 -25.1085,-1.12847 -43.20002,-1.34006 -48.56027,-0.63477 -1.55164,9.59201 -1.55164,19.18403 0,28.77605 1.12848,0.56423 6.8068,0.77582 11.32068,0.63476 4.09072,-0.14106 6.62978,0.42318 7.61719,1.69271 v 31.94987 c 0,17.49132 1.16021,40.11379 0.0317,41.8065 -19.24696,-6.57584 -57.78579,-42.01809 -61.45332,-67.40871 -3.52648,-24.26215 -1.19901,-46.62001 6.98242,-67.07357 6.91189,-17.49132 35.06418,-58.73934 54.60297,-56.56892 0.7053,3.24436 -0.0227,33.15312 -0.1638,39.21866 -0.14106,8.32248 -0.14106,13.25954 0,14.81119 13.25955,1.83377 23.13368,1.62219 29.6224,-0.63476 0.42318,-7.75825 1.79547,-30.87317 1.79547,-69.52334 0,-12.4132 0.44803,-22.0594 -0.12147,-25.01636 -44.80007,1.38265 -92.753,36.48833 -113.06802,80.02883 z"
         style="font-style:normal;font-variant:normal;font-weight:normal;font-stretch:normal;font-size:433.333px;font-family:'SunCatcherStudioFont left';-inkscape-font-specification:'SunCatcherStudioFont left';fill:#f7941e;fill-opacity:1"
         id="path825"
         inkscape:connector-curvature="0"
         sodipodi:nodetypes="cccccccccscccccccscc" />
    </g>



<g
       aria-label="v"
       style="font-style:normal;font-variant:normal;font-weight:normal;font-stretch:normal;font-size:5.33333px;line-height:1.25;font-family:'Open Sans';-inkscape-font-specification:'Open Sans, Normal';font-variant-ligatures:normal;font-variant-caps:normal;font-variant-numeric:normal;font-feature-settings:normal;text-align:start;letter-spacing:0px;word-spacing:0px;writing-mode:lr-tb;text-anchor:start;fill:#f7941e;fill-opacity:1;stroke:none"
       id="text828"
       transform="translate(250.86851,-148.92826)">
      <path
         d="M 21.182093,232.42577 C 10.302567,213.57036 1.5658969,205.8135 -7.1707725,196.65521 c 0.1106806,15.09718 -0.3303938,26.19527 0,42.96457 0.5642361,3.10329 2.0453559,7.26453 4.4433594,12.48372 2.82118067,5.92448 4.5844186,10.15625 5.2897137,12.69531 3.1032987,11.14367 4.9370661,20.80621 5.5013022,28.98763 -1.4267217,38.53132 -15.541151,92.39269 -64.3838368,100.95889 v -91.22581 -76.80664 c 0,-31.45617 0.502698,-56.99669 0.07952,-58.40728 -9.337266,-4.75039 -25.379893,-8.07172 -31.206288,-7.5093 0.141059,16.64496 0.587487,62.95433 0.446428,137.85668 -0.141059,57.55209 -0.573227,104.30339 0.132068,139.00391 17.95945,-0.34071 57.93653,-14.97393 74.433596,-30.98865 27.083333,-25.24957 45.748078,-53.1433 48.851377,-89.39547 2.539063,-29.62239 -2.539062,-57.90473 -15.234374,-84.847 z"
         style="font-style:normal;font-variant:normal;font-weight:normal;font-stretch:normal;font-size:433.333px;font-family:'SunCatcherStudioFont right';-inkscape-font-specification:'SunCatcherStudioFont right';fill:#f7941e;fill-opacity:1"
         id="path825"
         inkscape:connector-curvature="0"
         sodipodi:nodetypes="ccccccccsccccccc" />
    </g>



  </g>
</svg>
